<svg width="1200" height="630" viewBox="0 0 1200 630" fill="none" xmlns="http://www.w3.org/2000/svg">
  <rect width="1200" height="630" fill="#0F0F1A"/>

  <!-- Mountain / Graph -->
  <path d="M0 630L400 200L600 350L900 100L1200 500V630H0Z" fill="url(#paint0_linear)"/>

  <!-- Steps/Ladder -->
  <rect x="200" y="500" width="100" height="20" rx="4" fill="#6366F1"/>
  <rect x="350" y="420" width="100" height="20" rx="4" fill="#6366F1"/>
  <rect x="500" y="340" width="100" height="20" rx="4" fill="#6366F1"/>
  <rect x="650" y="260" width="100" height="20" rx="4" fill="#6366F1"/>
  <rect x="800" y="180" width="100" height="20" rx="4" fill="#6366F1"/>
  <rect x="950" y="100" width="100" height="20" rx="4" fill="#818CF8"/>

  <!-- Flag at top -->
  <path d="M960 100V40" stroke="white" stroke-width="4"/>
  <path d="M960 40L1020 60L960 80V40Z" fill="#F43F5E"/>

  <!-- Stars/Goals -->
  <circle cx="200" cy="100" r="4" fill="white"/>
  <circle cx="500" cy="80" r="4" fill="white"/>
  <circle cx="800" cy="50" r="4" fill="white"/>
  <circle cx="1100" cy="120" r="4" fill="white"/>

  <defs>
    <linearGradient id="paint0_linear" x1="600" y1="100" x2="600" y2="630" gradientUnits="userSpaceOnUse">
      <stop stop-color="#4F46E5" stop-opacity="0.5"/>
      <stop offset="1" stop-color="#0F0F1A" stop-opacity="0"/>
    </linearGradient>
  </defs>
</svg>
