<svg width="1200" height="630" viewBox="0 0 1200 630" fill="none" xmlns="http://www.w3.org/2000/svg">
  <rect width="1200" height="630" fill="black"/>

  <!-- Network Paths -->
  <path d="M100 530L300 315L500 530" stroke="#333" stroke-width="2"/>
  <path d="M300 315L600 100L900 315" stroke="#333" stroke-width="2"/>
  <path d="M700 530L900 315L1100 530" stroke="#333" stroke-width="2"/>

  <!-- Glowing Paths -->
  <path d="M200 630V315H1000V630" stroke="url(#paint0_linear)" stroke-width="4" stroke-linecap="round"/>
  <path d="M600 630V100" stroke="url(#paint1_linear)" stroke-width="6" stroke-linecap="round"/>

  <!-- Nodes -->
  <circle cx="600" cy="100" r="30" fill="#FFF" stroke="black" stroke-width="4"/>
  <circle cx="300" cy="315" r="20" fill="#333" stroke="#666" stroke-width="2"/>
  <circle cx="900" cy="315" r="20" fill="#333" stroke="#666" stroke-width="2"/>

  <!-- Floating Elements -->
  <rect x="550" y="200" width="100" height="60" rx="8" fill="#111" stroke="#FFF" stroke-width="2"/>
  <rect x="250" y="400" width="100" height="60" rx="8" fill="#111" stroke="#666" stroke-width="2"/>
  <rect x="850" y="400" width="100" height="60" rx="8" fill="#111" stroke="#666" stroke-width="2"/>

  <!-- Next.js "N" Hint -->
  <mask id="n-mask">
    <path d="M0 0H1200V630H0V0Z" fill="white"/>
    <path d="M1100 550L1000 550L600 100L500 100L500 550L600 550V200L1000 600H1100V550Z" fill="black"/>
  </mask>
  <rect width="1200" height="630" fill="url(#paint2_radial)" mask="url(#n-mask)" opacity="0.1"/>

  <defs>
    <linearGradient id="paint0_linear" x1="200" y1="315" x2="1000" y2="315" gradientUnits="userSpaceOnUse">
      <stop stop-color="#000"/>
      <stop offset="0.5" stop-color="#FFF"/>
      <stop offset="1" stop-color="#000"/>
    </linearGradient>
    <linearGradient id="paint1_linear" x1="600" y1="100" x2="600" y2="630" gradientUnits="userSpaceOnUse">
      <stop stop-color="#FFF"/>
      <stop offset="1" stop-color="#000"/>
    </linearGradient>
    <radialGradient id="paint2_radial" cx="0" cy="0" r="1" gradientUnits="userSpaceOnUse" gradientTransform="translate(600 315) rotate(90) scale(315 600)">
      <stop stop-color="white"/>
      <stop offset="1" stop-color="black" stop-opacity="0"/>
    </radialGradient>
  </defs>
</svg>
