<svg width="1200" height="630" viewBox="0 0 1200 630" fill="none" xmlns="http://www.w3.org/2000/svg">
  <rect width="1200" height="630" fill="#1E293B"/>

  <!-- Hexagon Grid Background -->
  <pattern id="hexagons" x="0" y="0" width="50" height="43.301" patternUnits="userSpaceOnUse">
    <path d="M25 0L50 14.4338V43.3013L25 57.735L0 43.3013V14.4338L25 0Z" fill="none" stroke="#334155" stroke-width="1"/>
  </pattern>
  <rect width="1200" height="630" fill="url(#hexagons)" opacity="0.2"/>

  <!-- Main Box / Package -->
  <path d="M400 200L600 100L800 200V400L600 500L400 400V200Z" fill="#3B82F6" stroke="#60A5FA" stroke-width="10" stroke-linejoin="round"/>
  <path d="M400 200L600 300L800 200" stroke="#60A5FA" stroke-width="10" stroke-linejoin="round"/>
  <path d="M600 300V500" stroke="#60A5FA" stroke-width="10" stroke-linejoin="round"/>

  <!-- API Connection Lines -->
  <path d="M200 315H400" stroke="#60A5FA" stroke-width="8" stroke-dasharray="20 10"/>
  <path d="M800 315H1000" stroke="#60A5FA" stroke-width="8" stroke-dasharray="20 10"/>

  <circle cx="200" cy="315" r="30" fill="#10B981"/>
  <circle cx="1000" cy="315" r="30" fill="#10B981"/>

  <!-- React Atom Hint -->
  <g transform="translate(600, 300) scale(0.5)">
    <circle cx="0" cy="0" r="30" fill="#61DAFB"/>
    <ellipse cx="0" cy="0" rx="140" ry="50" stroke="#61DAFB" stroke-width="10" transform="rotate(60)"/>
    <ellipse cx="0" cy="0" rx="140" ry="50" stroke="#61DAFB" stroke-width="10" transform="rotate(120)"/>
    <ellipse cx="0" cy="0" rx="140" ry="50" stroke="#61DAFB" stroke-width="10"/>
  </g>

  <!-- Text Hint -->
  <text x="600" y="580" font-family="monospace" font-size="40" fill="#94A3B8" text-anchor="middle">npm install react-api-toolkit</text>
</svg>
